# xmcd
#
# Track frame offsets:
#	150
#	20199
#	40511
#	60351
#	87769
#	109926
#	127472
#	146372
#	163035
#	193415
#	213237
#	233466
#
# Disc length: 3582 seconds
#
# Revision: 6
# Processed by: cddbd v1.5.2PL0 Copyright (c) Steve Scherf et al.
# Submitted via: audiograbber 1.83.01
#
DISCID=a50dfc0c
DTITLE=Various Artist - Blues Power - Songs Of Eric Clapton
DYEAR=1999
DGENRE=Blues
TTITLE0=Larry McCray - Miss You
TTITLE1=Koko Taylor - Blues Power
TTITLE2=Otis Clay - Wonderful Tonight
TTITLE3=Carl Weathersby - Lay Down Sally
TTITLE4=Buddy Guy - Strange Brew
TTITLE5=Bo Diddley - Before You Accuse Me
TTITLE6=Joe Louis Waller and  James Cotton - Roll It Over
TTITLE7=Honeyboy Edwards and James Cotton - Crossroads
TTITLE8=Otis Rush - Old Love
TTITLE9=Pinetop Perkins - Too Bad
TTITLE10=Ann Peebles - Tears In Heaven
TTITLE11=Eric Gales and Derek Trucks - Layla
EXTD=
EXTT0=
EXTT1=
EXTT2=
EXTT3=
EXTT4=
EXTT5=
EXTT6=
EXTT7=
EXTT8=
EXTT9=
EXTT10=
EXTT11=
PLAYORDER=
